<svg version="1" xmlns="http://www.w3.org/2000/svg" width="993.333" height="993.333" viewBox="0 0 745.000000 745.000000"><path d="M343 12.7c-49.4 4.9-87.6 15.4-128.5 35.3C190.6 59.6 162 78 141 95.4c-11.7 9.6-34.6 32.8-46.1 46.6C53.7 191.5 25.6 254.9 16 319.8 1.1 421.3 30.6 524.9 97 604.3c6.7 8 8.5 9.6 9.5 8.5 19.9-21.7 57.5-64.1 57.5-64.8 0-.6-2.7-4.4-6-8.6-13.8-17.4-29.3-44.3-37.9-66.2-28.8-72.5-24.3-155.8 12.1-225.2 53.9-102.7 168.1-159.6 282.9-141 78.7 12.8 147.4 59.5 188.5 128.4 27.7 46.3 41.4 102.8 37.6 154.9-.6 8.9-1.4 17.3-1.6 18.7-.3 1.4-1.4 7.7-2.5 14-7.1 39.9-24 78.5-49.8 113.2l-6.4 8.7 27.3 30.3c15 16.6 28.7 31.9 30.3 33.8l3 3.6 7.6-9c39.3-46.8 66.8-104.8 77.8-164.1 4.6-25 5.5-35.7 5.5-67.5 0-33.3-.9-43.4-6.5-71.5-6.3-31.7-14.8-56.3-30.4-88-26.6-54-65.1-99.3-114.5-134.5-51.1-36.5-113-59.3-176-65-10.5-.9-53.7-1.2-62-.3zm42.5 20.8c13.9.9 21.5 6.4 21.5 15.6 0 6.2-4.4 12.2-10.4 14.2-.4.1 1.7 5.1 4.9 11.1 3.1 5.9 5.4 11 5.2 11.2-.2.3-3.5.2-7.2-.2l-6.7-.7-4.9-10.4c-3.8-8.1-5.2-10.3-6.9-10.3-1.7 0-2 .6-2 3.9 0 2.1-.3 6.6-.7 10.1l-.6 6.2-5.4-.4c-2.9-.3-5.6-.8-5.9-1.1-.5-.5.8-27.7 2.1-41.7.1-1.4.3-4 .3-5.7.2-3.2.3-3.3 4.5-2.8 2.3.2 7.8.7 12.2 1zm62.5 9.6c7.4 1.7 13.9 3.5 14.3 3.9.4.4.3 2.8-.4 5.3-1.3 5.3.2 5.1-14.3 1.5-4.3-1-8-1.8-8.1-1.6-.6.6-2.4 8.2-2.1 8.6.2.2 3 1 6.3 1.8 15.2 3.9 14.1 3.1 12.3 9.5l-1 3.7-9.8-2.3c-5.3-1.3-10-2.1-10.3-1.7-.3.4-1.1 2.6-1.6 4.9l-1.1 4.2 11.2 2.6c6.1 1.5 11.2 2.8 11.4 3 .7.7-2.2 9.5-3.2 9.5-1.8 0-32-7.3-32.8-7.9-.6-.5 8.5-40.9 10.8-48 .3-.8 1.2-1.1 2.7-.7 1.2.3 8.3 2 15.7 3.7zm-147-1.6c7.2 3.7 9.2 11.8 4.5 18.8-1.4 2-3.1 3.7-3.8 3.7-1.5.1 4.4 5 5.9 5 .6 0 1.7-1.8 2.4-3.9 1.2-3.8 1.6-4.1 7.4-5.4 3.4-.7 6.3-1.2 6.4-1.1.2.1-1.3 3.9-3.3 8.4-2 4.5-3.5 8.3-3.3 8.4.1.1 3.4 2.2 7.1 4.5 3.7 2.4 6.6 4.5 6.5 4.7-.2.1-3.2.9-6.8 1.8-6 1.4-6.7 1.3-9.3-.3-2.8-1.8-2.8-1.8-6.1 1.5-6 6-17.2 7.7-24.9 3.8-8-4.2-8.9-16.3-1.8-22.8l2.1-1.9-2.4-2.6c-5.2-5.5-6-12.3-1.9-17.2 5.2-6.1 15.1-8.6 21.3-5.4zm197.4 18.4c13.7 6.7 19.7 12 21.7 19.5 3.3 12.1-4.7 26.7-16.8 30.7-6.5 2.1-14.8.7-26.8-4.5-6-2.7-11.2-5-11.3-5.1-.4-.4 20-46.5 20.5-46.5.2 0 5.9 2.7 12.7 5.9zm-265 27.6l12.5 21-5.2 3.2-5.2 3.2-8.5-14.4c-4.6-7.9-8.6-14.2-8.8-14.1-.1.2 1.1 7.6 2.8 16.6 1.6 8.9 3 16.8 3 17.5 0 .7-1.6 2.3-3.6 3.4l-3.6 2.1-13.6-11.4c-7.6-6.3-13.9-11.2-14-11.1-.2.2 3.5 6.8 8.2 14.6l8.5 14.3-5 2.9c-2.7 1.6-5.1 2.8-5.3 2.6-.2-.2-5.9-9.9-12.9-21.6-8.8-15-12.2-21.5-11.4-22.1.7-.5 4-2.6 7.5-4.6l6.3-3.8 6.7 5.6c3.7 3 9.4 7.7 12.7 10.5 3.3 2.7 6.2 4.8 6.4 4.6.2-.2-1.1-7.4-2.9-16-1.7-8.6-2.9-16-2.5-16.3 1.9-2 14.1-8.9 14.7-8.3.4.3 6.3 10 13.2 21.6zm322.9 3.2c9.9 6.8 13.4 9.9 15.3 13.5 4.2 8-1.5 17.3-10.4 17-3.2-.1-3.2-.1-1.7 2.1.8 1.2 1.5 4.1 1.5 6.5 0 3.8-.5 5-4 8.4-3.9 4-4.1 4-10 3.6-5.4-.4-6.9-1.1-17-7.8-6-4.1-11-7.8-11-8.2 0-1.4 27.7-40.8 28.7-40.8.3 0 4.2 2.5 8.6 5.7zM163.5 132c13.1 5.6 24.2 10.3 24.6 10.6.4.2-1.4 2.5-4.2 5.1l-4.9 4.6-4.6-1.8-4.6-1.7-6.6 6.3c-3.7 3.5-6.8 6.4-6.9 6.5-.2.1.6 2.3 1.7 4.9l2.1 4.9-4.9 4.8-4.8 4.9-10.1-25.3-10-25.3 4-4.3c2.3-2.3 4.4-4.2 4.7-4.2.4 0 11.4 4.5 24.5 10zm443.8.5c9.8 10 12.4 16.3 9.3 22.3-3.7 7.1-11.1 10.6-17.5 8.4l-3-1.1-2.8 12c-1.5 6.5-3 11.9-3.3 11.9-.3 0-2.7-2.2-5.4-4.9l-4.7-4.8 3.2-10.7c2.9-9.4 3.1-10.8 1.8-12.1-1.3-1.3-2.3-.6-8.4 5.5l-6.9 7-4.3-4.2-4.3-4.2 17.7-17.8c20.3-20.4 16.9-19.5 28.6-7.3zm-493.5 33.3c5.3 3.8 14.5 10.1 20.4 14.2l10.8 7.3-1.6 2.7c-.9 1.4-2.4 3.7-3.4 5l-1.9 2.5-8.6-5.9c-4.7-3.2-9-5.5-9.4-5-1.5 1.7-10.1 14.2-10.1 14.6 0 .3 3.8 3.1 8.5 6.3 9.5 6.4 9.1 5 3.9 13-.9 1.4-1.9 2.5-2.3 2.5-.8 0-37.9-25.5-40-27.5-1.2-1.1-1-1.9.8-4.8 3.9-6.4 4.2-6.4 12.5-.6 4.2 2.9 7.7 5.1 7.9 4.8.7-.8 9.3-13.4 10-14.5.4-.7-2.6-3.3-7.3-6.4l-7.9-5.4 2.1-3c2.6-3.7 5-6.6 5.5-6.6.2 0 4.8 3.1 10.1 6.8zm527.1 4.1c1.7 2.1 3.1 4.3 3.1 4.8s-8.9 7.8-19.9 16l-19.8 15.1-3.6-4.8-3.7-4.9 14.8-11.3c21.5-16.5 24.6-18.8 25.3-18.8.4 0 2.1 1.8 3.8 3.9zm23.5 34.4c10.3 19.3 10.6 28.6 1.2 38.5-8.6 9.3-22.4 10.7-32.6 3.4-4.6-3.2-8.6-8.6-14.3-19.3l-4.7-8.7 21.8-12c11.9-6.6 22-12.1 22.4-12.1.3-.1 3.1 4.6 6.2 10.2zM89.5 226.6c12.6 5.2 23.1 9.6 23.2 9.8.2.2-.8 3.1-2.3 6.5-1.8 4.1-3.4 6.3-4.8 6.7-1.1.2-9.7 1.7-19.1 3.2l-17 2.7 13 5.4c7.2 2.9 14 5.8 15.1 6.5l2.2 1.1-2.4 5.3c-1.3 3-2.8 5.2-3.2 5-.5-.1-11.1-4.5-23.5-9.7-25.2-10.5-23.1-8.5-18.9-18.2l2-4.5 18.6-2.9c10.2-1.6 18.3-3.2 17.9-3.5-.5-.4-6.8-3.1-14.2-6.1-7.3-3-13.5-5.9-13.8-6.5-.4-1 3.2-10.4 4-10.4.2 0 10.7 4.3 23.2 9.6zm596 37.2c9.5 5.2 15.1 16.3 14.3 28.8-.2 3.5-.8 6.8-1.4 7.4-.6.6-2.8.1-6.2-1.5-4.7-2.2-5.2-2.7-4.2-4.4 2.4-4.6.4-12.6-4.4-17-3.9-3.7-12.6-4.1-18.5-.9-7.8 4.2-10 12-5.7 21l1.7 3.6 4.2-1.3c4.4-1.3 4.6-1.8 3.2-8.1-.6-2.8-.4-3.2 2.2-3.7 1.5-.4 3.7-.9 4.9-1.2 1.8-.6 2.3.3 4.9 9 1.5 5.2 2.6 9.8 2.3 10.1-.3.2-6 2.2-12.8 4.3-13.9 4.5-13.3 4.6-18.3-4-8.1-13.9-7.1-28.6 2.5-37.5 9-8.5 20.7-10.2 31.3-4.6zM48.8 283.5c3.8.8 3.8 1 1.2 12.9-2.1 9.4-1.8 10.5 2.2 10.6.9 0 2.3.2 3.1.6 1.1.4 1.9-1.8 3.6-9.8 1.2-5.6 2.3-10.3 2.4-10.5.2-.1 8.7 1.7 9.4 2.1.1.1-.7 4.2-1.7 9.1-2.5 11.7-2.5 11.2 1.3 12 1.7.4 3.9.9 4.8 1.1 1.3.4 2-1.6 3.9-11.2l2.3-11.6 3.6.7c6.2 1.1 7.2 1.6 6.7 3.3-.3.9-1.9 8.8-3.7 17.5-3.1 14.7-3.4 15.8-5.3 15.3-1.2-.3-12.2-2.6-24.6-5.2-12.4-2.6-22.6-4.8-22.7-4.9-.3-.2 5.4-28.7 6.3-31.8.4-1.1 1.2-1.6 2.2-1.3.9.2 3.2.7 5 1.1zm658.6 41.7c.7 3.6 2.5 17.7 3.2 24.9.6 6.3.6 6.6-1.7 7.2-4.4 1.2-7.7.8-8.3-1.1-.2-.9-.7-5.1-1.1-9.2-.9-11-.9-10.8-5.8-10.3-2.3.3-4.2.6-4.3.7-.1 0 .4 4.7 1 10.3l1.2 10.3-3.2.6c-6.3 1.2-6.8.6-7.9-8.1-.6-4.4-1.1-8.3-1.3-8.8-.1-.4-.2-1.2-.2-1.8 0-1.1-8.4-.8-9.6.4-.3.2.1 5.4.9 11.5l1.3 11.1-4.9.6c-2.6.4-5.1.5-5.3.2-.8-.8-4.5-33.9-3.9-34.6.5-.5 40.7-5.6 47.2-6 1.6-.1 2.4.6 2.7 2.1zM41.9 343.5l3.8 3.5-2.3 4.7c-2.9 5.7-3 9.2-.3 14.4 3.5 7 14.2 10 21.9 6.1 4.4-2.1 7.8-8.6 7.5-13.9-.1-2.1-.3-4.6-.4-5.6-.1-1.3-1-1.7-4.5-1.7h-4.5l-.3 4.7-.3 4.8-5.3.3-5.3.3.3-10.3.3-10.3 13.7-.3 13.7-.3 1.7 5.6c1.9 6.7 2.2 17.4.5 23.2-2.9 10.6-13.3 18.3-24.6 18.3-8.1 0-14-2.2-18.8-6.8-6.3-6.1-8.1-10.4-8.1-20.2-.1-7.2.3-9.4 2.6-14.3 1.5-3.1 3.2-5.7 3.7-5.7.6 0 2.8 1.6 5 3.5zm40.4 51.7c.3 1.3.8 4.3 1.2 6.8l.6 4.5-4.5 2.5c-2.5 1.3-4.6 2.7-4.5 3 0 .3.8 4.5 1.7 9.5l1.7 9 4.9 1c5.5 1.2 6.2 2.1 7.2 9.4.6 4.9.5 5.3-1.2 4.8-1-.3-10-2.4-19.9-4.6-9.9-2.2-21.2-4.7-25.1-5.6l-7.2-1.7-.7-5.5c-.4-3.7-.3-5.9.5-6.7 1.3-1.3 43.2-28.4 44.1-28.5.4-.1.9.9 1.2 2.1zm592.9 8.3c6.2.9 12.4 1.8 13.7 2 1.3.2 6.8 1 12.3 1.6l9.9 1.2-.6 4.1c-.4 2.3-.8 5-1 6.1-.1 1.1-.8 6.6-1.5 12.2l-1.3 10.3h-4.1c-6.4 0-6.6-.5-5.5-9 .5-4.1 1.1-8.7 1.4-10.1.4-2.5.1-2.7-4.2-3.4-3.2-.5-4.8-.3-5.4.6-.4.7-1 4.8-1.4 9.1-.4 4.3-1.1 8.1-1.7 8.4-.5.3-3 .3-5.5-.1l-4.6-.7.7-5.1c.3-2.9.8-7.3 1.2-9.8l.6-4.6-9.2-1.1c-5.1-.6-9.5-1.3-9.7-1.6-.3-.2-.2-2.9.2-6 .8-6.5-.3-6.2 15.7-4.1zm5.1 50.1c18.1 6.4 22.4 30.2 8.2 44.9-2.4 2.5-4.8 4.5-5.3 4.5-.4 0-2-2.4-3.4-5.4l-2.7-5.3 2.3-1.1c3-1.3 5.6-7 5.6-12 0-14.3-22-19.8-28.6-7.1-1.2 2.4-1.5 4.8-1.1 9.1l.5 5.7-4.5 2.6c-2.5 1.4-4.7 2.5-4.8 2.5-.2 0-1.1-2.3-2-5.1-2.1-6.2-1.6-12.7 1.5-19.6 6.1-13.7 19.3-19 34.3-13.7zm-591.5 7c8.1 4 12 9.8 18.6 27.5l2.4 6.7-9.1 3.5c-31.4 12.2-38 14.7-38.2 14.5-.1-.2-2.1-5.2-4.4-11.2-7.1-18.4-6.6-27.8 1.7-35.9 7.8-7.7 19.7-9.7 29-5.1z"/><path d="M380.5 43.9c-.3.2-.5 2.8-.5 5.8V55h5.3c5.7 0 8.1-1.2 9.1-4.6 1.1-3.5-1.6-5.7-7.8-6.4-3.1-.3-5.9-.4-6.1-.1zM290.8 50.1c-2.4 1.4-2.3 6.2.2 8.4 1.9 1.7 2.1 1.7 4 0 2.2-2 2.7-6.4.8-8.3-1.4-1.4-2.7-1.5-5-.1zM290 73.9c-2.6 4.9.1 10.1 5.3 10.1 2.4 0 8.8-4.3 7.7-5.3-2.2-1.9-10.1-6.7-10.9-6.7-.6 0-1.5.9-2.1 1.9zM486.5 81.6c-3.1 6.9-5.4 13.2-5.2 13.8.3.7 3 2.1 6.1 3 9.6 3 16 .4 19.2-7.9 2-5.5 1.4-10.8-1.8-14.2-1.9-2.1-10.7-7.3-12.2-7.3-.2 0-2.9 5.7-6.1 12.6zM548.6 104l-2.6 3.9 3.7 2.6c4.5 3 7.4 3.2 9.8.5 1.5-1.7 1.6-2.4.6-4.3-1.1-2-6.9-6.7-8.3-6.7-.3 0-1.7 1.8-3.2 4zM537.5 120c-2.4 3.5-2.6 4.2-1.4 5.6 2 2.4 8.7 5.3 11 4.7 2.5-.7 4.2-3.8 3.4-6.3-.6-2-7.6-8-9.3-8-.5 0-2.2 1.8-3.7 4zM146.7 141.8c1.4 3.1 2.9 6.8 3.4 8.1l1 2.4 4.4-4.3 4.5-4.4-2.7-1.5c-1.6-.8-5.1-2.5-8-3.7l-5.1-2.3 2.5 5.7zM593.7 141.8l-3.8 3.9 4.1 3.6c2.2 2.1 5.1 3.7 6.3 3.7 2.7 0 5.7-2.8 5.7-5.3 0-1.7-6.6-9.7-7.9-9.7-.4 0-2.4 1.7-4.4 3.8zM642.5 216.6c-6.6 3.7-12.2 6.9-12.5 7.1-.6.6 4.2 9.1 6.2 11 5.4 4.9 14 4.4 20.4-1.1 5.1-4.4 5.7-10.3 2-18.1-1.5-3-3.1-5.5-3.4-5.5-.4 0-6.1 3-12.7 6.6zM58.3 421.2c-4 2.3-7.1 4.3-7 4.5.6.5 16.1 3.3 16.4 2.9.2-.2-.2-2.8-.9-5.9l-1.3-5.6-7.2 4.1zM72.4 472.4c-3.9 1.7-7.2 5.9-7.9 10-.8 4.2 2.6 15.2 4.6 14.8 2.9-.7 24.4-9.4 25.3-10.2 1.5-1.5-2.3-9.7-6-13-2.8-2.4-4.3-3-8.2-3-2.6.1-6.1.7-7.8 1.4zM38.4 26c-6.8 1.4-15.6 6.4-20.7 11.9-20.5 22-11.4 57.3 17.1 66.1 3.5 1.1 8.4 2 10.8 2h4.3l13.7 16.5c7.6 9.1 14.2 17.2 14.8 18 .9 1.2 2.7-.4 9.1-8.2 4.4-5.3 14-15.7 21.4-23 7.3-7.4 13-13.8 12.5-14.2-1.2-1.1-22.6-17.6-29-22.5l-5.1-3.8-.5-6.8c-1.7-23.8-24.5-40.7-48.4-36zM692.7 26c-11.4 2.9-22.4 11.6-27.3 21.7-1.6 3.2-3.1 8.7-3.8 13.4l-1 8-18.4 14.1-18.3 14.1 13.4 13.6c13.9 14 17.1 17.5 25 27.3l4.6 5.7 15.7-18.8 15.6-18.8 7-.6c12.6-1.1 25.4-9.1 31.1-19.4 12.3-22.6 3-49.1-20.3-58.3-6.2-2.5-17.6-3.4-23.3-2z"/><path d="M350.5 115.7c-75.5 6.7-141.7 43.6-186.4 103.8-12.4 16.8-13.9 19-22.1 34.8-12.5 23.8-21 48.9-25.7 75.7-3.4 19.6-4.3 52.8-1.9 73.4 5.3 45.7 22.6 88.9 50.6 126.1 3.9 5.2 7.3 9.5 7.5 9.5.4 0 24.6-26.7 44.5-49 3.7-4.1 25.8-28.7 49.1-54.6 23.3-25.9 49.8-55.3 58.8-65.4l16.4-18.2-21.9-22.2c-12.1-12.1-34.9-35.2-50.8-51.2-28-28.3-28.7-29.1-26-29.8 1.6-.4 14.7-4.3 29.2-8.7 14.5-4.4 26.7-7.9 27.1-7.7.7.3 21.9 23.6 37.6 41.4 3.9 4.3 9.3 10.3 12 13.4 2.8 3 6.8 7.5 9.1 10 13.8 15.2 15.9 17.5 16.6 17.5.3 0 16.3-17.3 35.3-38.5 19.1-21.2 35.9-39.8 37.5-41.4l2.7-2.8 28.9 8.7c15.9 4.8 29 8.9 29.2 9 .2.2-107.1 108.8-238.4 241.5C89.5 672.8 30.5 731.9 29.8 730.8c-.8-1-.9-.9-.4.4.3 1 .1 2-.4 2.3-.6.4-1 1-1 1.4 0 .4 11.8-2.8 26.2-7.1 21-6.3 26.8-8.4 29.3-10.6 1.6-1.6 17.3-16 34.7-32.1l31.8-29.2 12.2 8.8c82 58.9 182.9 80.5 283.3 60.7 50-9.9 99.6-32.2 142.8-64.2l8.8-6.5 3.7 3.5c2 1.9 17.9 16.6 35.4 32.6l31.6 29.1 25.4 7.6c13.9 4.2 25.8 7.8 26.4 8 .7.2 1-.4.7-1.6-.3-1-.8-1.7-1.2-1.4-.4.2-50-49.4-110.2-110.2-60.2-60.9-130-131.5-155.1-156.8l-45.7-46.2 16.3-15.1 16.3-15.1 18.6 20.7c10.2 11.4 20.7 23.1 23.4 26.1 2.6 3 23.9 26.6 47.2 52.5 23.3 25.9 42.5 47.3 42.7 47.4.5.7 14.3-18.5 19.7-27.3 15.9-26.2 26.8-54.1 32.7-83.5 18.6-93-13.9-186.5-86.2-248.2-25.9-22.1-51.6-36.8-83.3-47.8-20.3-6.9-37.8-10.7-60.4-13-9.6-.9-35.5-1.1-44.6-.3zm175 473.3c2.1 2.2 3.7 4.1 3.4 4.4-3.1 3-25.7 16.4-37 22-77 38.4-166.2 38-242.9-1-9.9-5-29.4-16.7-32-19-.2-.3 1.4-2.3 3.6-4.5l4-4 9.8 6.1c14.8 9.4 37.9 20.2 54.8 25.8 13.8 4.6 36.9 10 50.3 11.7 16.8 2.2 49.6 2.2 64 0 22.1-3.3 40.5-7.9 58.9-14.6 12.1-4.4 38.2-17.5 49.1-24.8 5-3.3 9.2-6 9.5-6 .3-.1 2.3 1.7 4.5 3.9zm-274 58.4c9.2 3.9 8.4 17.2-1.3 21.3-9.5 4-18.6-7.2-13.7-16.7 2.8-5.4 8.7-7.2 15-4.6zm263.9 1.7c4.3 3.7 5.4 8.1 3.3 13.2-1.9 4.5-5.7 7-10.6 7-7.4 0-13.2-7.1-11.6-14.3.3-1.6 2.2-4.3 4.1-6 4.8-4.2 10-4.2 14.8.1zm-61.4 6.7c5.4 2.7 8.3 7.7 7.7 13.6-.3 3.9-1.6 6.5-6.6 13.7-3.3 4.9-5.7 8.9-5.2 8.9.8 0 11.1-2.4 15.2-3.6 1.3-.3 1.9.7 2.8 4.2.7 2.6 1.1 4.8.9 4.9-.6.5-32 7.6-32.4 7.3-.1-.2-.7-2.2-1.2-4.5-1-4.1-.9-4.3 6.9-15.5 6.4-9.1 7.9-12 7.9-15 0-3.8-1.9-5.8-5.4-5.8-2.4 0-5.6 3.7-5.6 6.4 0 2.2-.5 2.4-5.5 2.8-5.4.3-5.5.3-5.5-2.5 0-11.8 15.1-20.4 26-14.9zm-134.7 2.1c.8.8-7.8 41.6-9.3 44.2-.4.6-2.5.5-5.8-.3-4-.9-5.1-1.5-4.7-2.7 1.2-4.2 7.2-31.1 6.8-31.1-.2 0-2.1.9-4.3 2-2.2 1.1-4.2 2-4.5 2-.3 0-1.5-1.9-2.5-4.3l-1.9-4.2 7.7-3.7c6.5-3.2 8.4-3.7 12.6-3.3 2.7.2 5.4.9 5.9 1.4zm43.3 5c10.2 4.7 13 16.6 6.1 26.5-1.7 2.6-12.2 16-14.8 18.9-.4.5-3.6.6-7.2.2l-6.6-.7 6-7.2 6-7.1-3.8-.9c-8.1-1.9-12.3-7.1-12.3-15.4 0-12.3 14.2-19.9 26.6-14.3zm47.7.8c1.8 1.1 4.2 3.5 5.5 5.4 2 2.9 2.3 4.4 2 9.9-.3 6-1 7.7-6.8 18l-6.5 11.5-6.3.8c-3.5.5-6.5.7-6.8.4-.3-.2 1.8-4.1 4.6-8.5l5-8.1-3 .5c-4.2.9-11.4-2.9-14.2-7.4-7.2-11.7 3.3-26.2 18-24.8 2.9.2 6.7 1.3 8.5 2.3z"/><path d="M349.2 672.3c-2.9 3.1-2.9 7.7.1 10.5 4.7 4.5 11.7 1.4 11.7-5.1 0-3.8-.7-5-3.7-6.6-3.3-1.7-5.7-1.3-8.1 1.2zM398 670.7c-5.1 1.9-6.8 8.5-3 12.3 4.5 4.5 12 1.1 12-5.3 0-4.7-4.9-8.5-9-7zM574.5 539c1 1.1 2 2 2.3 2 .3 0-.3-.9-1.3-2s-2-2-2.3-2c-.3 0 .3.9 1.3 2zM167.9 544.7c-1.3 1.6-1.2 1.7.4.4.9-.7 1.7-1.5 1.7-1.7 0-.8-.8-.3-2.1 1.3zM102.9 616.7c-1.3 1.6-1.2 1.7.4.4.9-.7 1.7-1.5 1.7-1.7 0-.8-.8-.3-2.1 1.3zM647 619.5c1.9 1.9 3.6 3.5 3.9 3.5.3 0-1-1.6-2.9-3.5s-3.6-3.5-3.9-3.5c-.3 0 1 1.6 2.9 3.5zM95.4 625.2l-2.9 3.3 3.3-2.9c3-2.8 3.7-3.6 2.9-3.6-.2 0-1.6 1.5-3.3 3.2zM656 629.5c1.9 1.9 3.6 3.5 3.9 3.5.3 0-1-1.6-2.9-3.5s-3.6-3.5-3.9-3.5c-.3 0 1 1.6 2.9 3.5zM86.4 635.2l-2.9 3.3 3.3-2.9c3-2.8 3.7-3.6 2.9-3.6-.2 0-1.6 1.5-3.3 3.2zM665 639.5c1.9 1.9 3.6 3.5 3.9 3.5.3 0-1-1.6-2.9-3.5s-3.6-3.5-3.9-3.5c-.3 0 1 1.6 2.9 3.5zM76.9 645.7l-3.4 3.8 3.8-3.4c3.4-3.3 4.2-4.1 3.4-4.1-.2 0-1.9 1.7-3.8 3.7zM674.5 650c2.1 2.2 4.1 4 4.4 4 .3 0-1.3-1.8-3.4-4-2.1-2.2-4.1-4-4.4-4-.3 0 1.3 1.8 3.4 4zM67.9 655.7l-3.4 3.8 3.8-3.4c3.4-3.3 4.2-4.1 3.4-4.1-.2 0-1.9 1.7-3.8 3.7zM684 660.5c1.9 1.9 3.6 3.5 3.9 3.5.3 0-1-1.6-2.9-3.5s-3.6-3.5-3.9-3.5c-.3 0 1 1.6 2.9 3.5zM58.9 665.7l-3.4 3.8 3.8-3.4c3.4-3.3 4.2-4.1 3.4-4.1-.2 0-1.9 1.7-3.8 3.7zM693 670.5c1.9 1.9 3.6 3.5 3.9 3.5.3 0-1-1.6-2.9-3.5s-3.6-3.5-3.9-3.5c-.3 0 1 1.6 2.9 3.5zM49.9 675.7l-3.4 3.8 3.8-3.4c3.4-3.3 4.2-4.1 3.4-4.1-.2 0-1.9 1.7-3.8 3.7zM697 675.3c0 .2 1.5 1.6 3.3 3.3l3.2 2.9-2.9-3.3c-2.8-3-3.6-3.7-3.6-2.9zM706.1 688.6c0 1.1.3 1.4.6.6.3-.7.2-1.6-.1-1.9-.3-.4-.6.2-.5 1.3zM708.1 695.6c0 1.1.3 1.4.6.6.3-.7.2-1.6-.1-1.9-.3-.4-.6.2-.5 1.3zM33.1 717.6c0 1.1.3 1.4.6.6.3-.7.2-1.6-.1-1.9-.3-.4-.6.2-.5 1.3zM31.1 724.6c0 1.1.3 1.4.6.6.3-.7.2-1.6-.1-1.9-.3-.4-.6.2-.5 1.3z"/></svg>